<mxfile host="app.diagrams.net" modified="2023-10-21T19:05:26.803Z" agent="Mozilla/5.0 (X11; Linux x86_64; rv:109.0) Gecko/20100101 Firefox/118.0" etag="ORq9AQ_bbgAoF4dmP-27" version="22.0.6" type="device">
  <diagram name="Page-1" id="T056iehUaS95CJMh_BP8">
    <mxGraphModel dx="1195" dy="621" grid="1" gridSize="10" guides="1" tooltips="1" connect="1" arrows="1" fold="1" page="1" pageScale="1" pageWidth="850" pageHeight="1100" math="0" shadow="0">
      <root>
        <mxCell id="0" />
        <mxCell id="1" parent="0" />
        <mxCell id="KAv8IfsHmqqQ4qrLPRzv-8" style="rounded=0;orthogonalLoop=1;jettySize=auto;html=1;exitX=0.5;exitY=0;exitDx=0;exitDy=0;entryX=0;entryY=0.5;entryDx=0;entryDy=0;fillColor=#b0e3e6;strokeColor=#0e8088;strokeWidth=2;" parent="1" source="KAv8IfsHmqqQ4qrLPRzv-4" target="KAv8IfsHmqqQ4qrLPRzv-5" edge="1">
          <mxGeometry relative="1" as="geometry" />
        </mxCell>
        <mxCell id="KAv8IfsHmqqQ4qrLPRzv-9" value="&lt;div&gt;1/2&lt;/div&gt;" style="edgeLabel;html=1;align=center;verticalAlign=middle;resizable=0;points=[];" parent="KAv8IfsHmqqQ4qrLPRzv-8" vertex="1" connectable="0">
          <mxGeometry x="-0.125" y="1" relative="1" as="geometry">
            <mxPoint x="-14" y="-14" as="offset" />
          </mxGeometry>
        </mxCell>
        <mxCell id="KAv8IfsHmqqQ4qrLPRzv-10" style="rounded=0;orthogonalLoop=1;jettySize=auto;html=1;exitX=0.5;exitY=1;exitDx=0;exitDy=0;entryX=0;entryY=0.5;entryDx=0;entryDy=0;fillColor=#b0e3e6;strokeColor=#0e8088;strokeWidth=2;" parent="1" source="KAv8IfsHmqqQ4qrLPRzv-4" target="KAv8IfsHmqqQ4qrLPRzv-6" edge="1">
          <mxGeometry relative="1" as="geometry" />
        </mxCell>
        <mxCell id="KAv8IfsHmqqQ4qrLPRzv-11" value="1/2" style="edgeLabel;html=1;align=center;verticalAlign=middle;resizable=0;points=[];" parent="KAv8IfsHmqqQ4qrLPRzv-10" vertex="1" connectable="0">
          <mxGeometry x="0.475" y="-1" relative="1" as="geometry">
            <mxPoint x="-18" y="1" as="offset" />
          </mxGeometry>
        </mxCell>
        <mxCell id="KAv8IfsHmqqQ4qrLPRzv-4" value="A" style="ellipse;whiteSpace=wrap;html=1;aspect=fixed;fillColor=#b0e3e6;strokeColor=#0e8088;" parent="1" vertex="1">
          <mxGeometry x="240" y="240" width="80" height="80" as="geometry" />
        </mxCell>
        <mxCell id="KAv8IfsHmqqQ4qrLPRzv-14" style="rounded=0;orthogonalLoop=1;jettySize=auto;html=1;exitX=1;exitY=1;exitDx=0;exitDy=0;entryX=0;entryY=0;entryDx=0;entryDy=0;fillColor=#d0cee2;strokeColor=#56517e;strokeWidth=2;" parent="1" source="KAv8IfsHmqqQ4qrLPRzv-5" target="KAv8IfsHmqqQ4qrLPRzv-7" edge="1">
          <mxGeometry relative="1" as="geometry" />
        </mxCell>
        <mxCell id="KAv8IfsHmqqQ4qrLPRzv-15" value="3/4" style="edgeLabel;html=1;align=center;verticalAlign=middle;resizable=0;points=[];" parent="KAv8IfsHmqqQ4qrLPRzv-14" vertex="1" connectable="0">
          <mxGeometry x="0.5875" y="4" relative="1" as="geometry">
            <mxPoint x="-11" y="-26" as="offset" />
          </mxGeometry>
        </mxCell>
        <mxCell id="KAv8IfsHmqqQ4qrLPRzv-16" style="rounded=0;orthogonalLoop=1;jettySize=auto;html=1;exitX=0;exitY=1;exitDx=0;exitDy=0;entryX=1;entryY=0;entryDx=0;entryDy=0;fillColor=#d0cee2;strokeColor=#56517e;strokeWidth=2;" parent="1" source="KAv8IfsHmqqQ4qrLPRzv-5" target="KAv8IfsHmqqQ4qrLPRzv-4" edge="1">
          <mxGeometry relative="1" as="geometry" />
        </mxCell>
        <mxCell id="KAv8IfsHmqqQ4qrLPRzv-17" value="1/4" style="edgeLabel;html=1;align=center;verticalAlign=middle;resizable=0;points=[];" parent="KAv8IfsHmqqQ4qrLPRzv-16" vertex="1" connectable="0">
          <mxGeometry x="-0.2125" y="4" relative="1" as="geometry">
            <mxPoint x="9" y="6" as="offset" />
          </mxGeometry>
        </mxCell>
        <mxCell id="KAv8IfsHmqqQ4qrLPRzv-5" value="B" style="ellipse;whiteSpace=wrap;html=1;aspect=fixed;fillColor=#d0cee2;strokeColor=#56517e;" parent="1" vertex="1">
          <mxGeometry x="360" y="120" width="80" height="80" as="geometry" />
        </mxCell>
        <mxCell id="_gaqRXgaM2xNq_MZA9i5-1" style="rounded=0;orthogonalLoop=1;jettySize=auto;html=1;exitX=0;exitY=0;exitDx=0;exitDy=0;entryX=1;entryY=1;entryDx=0;entryDy=0;fillColor=#fad9d5;strokeColor=#ae4132;strokeWidth=2;" parent="1" source="KAv8IfsHmqqQ4qrLPRzv-6" target="KAv8IfsHmqqQ4qrLPRzv-4" edge="1">
          <mxGeometry relative="1" as="geometry" />
        </mxCell>
        <mxCell id="_gaqRXgaM2xNq_MZA9i5-2" value="1" style="edgeLabel;html=1;align=center;verticalAlign=middle;resizable=0;points=[];" parent="_gaqRXgaM2xNq_MZA9i5-1" vertex="1" connectable="0">
          <mxGeometry x="-0.3048" relative="1" as="geometry">
            <mxPoint x="10" y="-10" as="offset" />
          </mxGeometry>
        </mxCell>
        <mxCell id="KAv8IfsHmqqQ4qrLPRzv-6" value="C" style="ellipse;whiteSpace=wrap;html=1;aspect=fixed;fillColor=#fad9d5;strokeColor=#ae4132;" parent="1" vertex="1">
          <mxGeometry x="360" y="360" width="80" height="80" as="geometry" />
        </mxCell>
        <mxCell id="KAv8IfsHmqqQ4qrLPRzv-7" value="D" style="ellipse;whiteSpace=wrap;html=1;aspect=fixed;fillColor=#fad7ac;strokeColor=#b46504;" parent="1" vertex="1">
          <mxGeometry x="480" y="240" width="80" height="80" as="geometry" />
        </mxCell>
        <mxCell id="KAv8IfsHmqqQ4qrLPRzv-12" style="edgeStyle=orthogonalEdgeStyle;rounded=0;orthogonalLoop=1;jettySize=auto;html=1;exitX=1;exitY=0.5;exitDx=0;exitDy=0;entryX=0.5;entryY=1;entryDx=0;entryDy=0;curved=1;fillColor=#fad7ac;strokeColor=#b46504;strokeWidth=2;" parent="1" source="KAv8IfsHmqqQ4qrLPRzv-7" target="KAv8IfsHmqqQ4qrLPRzv-7" edge="1">
          <mxGeometry relative="1" as="geometry" />
        </mxCell>
        <mxCell id="KAv8IfsHmqqQ4qrLPRzv-13" value="&lt;div&gt;1&lt;/div&gt;" style="edgeLabel;html=1;align=center;verticalAlign=middle;resizable=0;points=[];" parent="KAv8IfsHmqqQ4qrLPRzv-12" vertex="1" connectable="0">
          <mxGeometry x="0.1625" y="-4" relative="1" as="geometry">
            <mxPoint x="13" y="4" as="offset" />
          </mxGeometry>
        </mxCell>
      </root>
    </mxGraphModel>
  </diagram>
</mxfile>
